# xmcd
#
# Track frame offsets: 
#        150
#        22877
#        45353
#        71001
#        98082
#        119799
#        143333
#        165632
#        188234
#        209878
#        231594
#        246243
#
# Disc length: 3553 seconds
#
# Revision: 0
# Processed by: cddbd v1.5.2PL0 Copyright (c) Steve Scherf et al.
# Submitted via: ExactAudioCopy v0.99pb5
#
DISCID=ac0ddf0c
DTITLE=Urbandub - Birth
DYEAR=2004
DGENRE=Rock
TTITLE0=Boy
TTITLE1=Breakdown
TTITLE2=Would You Go
TTITLE3=Dissect
TTITLE4=Eating Me
TTITLE5=Picture
TTITLE6=Give
TTITLE7=Come
TTITLE8=It's Over
TTITLE9=Apart
TTITLE10=2 Things
TTITLE11=Give (Acoustic Version)
EXTD=
EXTT0=
EXTT1=
EXTT2=
EXTT3=
EXTT4=
EXTT5=
EXTT6=
EXTT7=
EXTT8=
EXTT9=
EXTT10=
EXTT11=
PLAYORDER=
